<svg width="43" height="43" viewBox="0 0 43 43" fill="none" xmlns="http://www.w3.org/2000/svg">
<path d="M14.6049 33.3754C14.6049 33.5434 14.4117 33.6777 14.1682 33.6777C13.891 33.7029 13.6979 33.5686 13.6979 33.3754C13.6979 33.2074 13.891 33.073 14.1346 33.073C14.3865 33.0479 14.6049 33.1822 14.6049 33.3754ZM11.993 32.9975C11.9342 33.1654 12.1021 33.3586 12.3541 33.409C12.5725 33.493 12.8244 33.409 12.8748 33.241C12.9252 33.073 12.7656 32.8799 12.5137 32.8043C12.2953 32.7455 12.0518 32.8295 11.993 32.9975ZM15.7051 32.8547C15.4615 32.9135 15.2936 33.073 15.3187 33.2662C15.3439 33.4342 15.5623 33.5434 15.8143 33.4846C16.0578 33.4258 16.2258 33.2662 16.2006 33.0982C16.1754 32.9387 15.9486 32.8295 15.7051 32.8547ZM21.2313 0.671875C9.58262 0.671875 0.671875 9.51543 0.671875 21.1641C0.671875 30.4779 6.53398 38.448 14.9072 41.2531C15.9822 41.4463 16.3602 40.7828 16.3602 40.2369C16.3602 39.7162 16.335 36.8439 16.335 35.0803C16.335 35.0803 10.4561 36.34 9.22148 32.5775C9.22148 32.5775 8.26406 30.1336 6.88672 29.5037C6.88672 29.5037 4.96348 28.1852 7.02109 28.2104C7.02109 28.2104 9.1123 28.3783 10.2629 30.3771C12.1021 33.6189 15.1844 32.6867 16.3854 32.1324C16.5785 30.7887 17.1244 29.8564 17.7291 29.3021C13.0344 28.7814 8.29766 28.1012 8.29766 20.0219C8.29766 17.7123 8.93594 16.5533 10.2797 15.0752C10.0613 14.5293 9.34746 12.2785 10.498 9.37266C12.2533 8.82676 16.293 11.6402 16.293 11.6402C17.9727 11.1699 19.7783 10.9264 21.5672 10.9264C23.3561 10.9264 25.1617 11.1699 26.8414 11.6402C26.8414 11.6402 30.8811 8.81836 32.6363 9.37266C33.7869 12.2869 33.073 14.5293 32.8547 15.0752C34.1984 16.5617 35.0215 17.7207 35.0215 20.0219C35.0215 28.1264 30.0748 28.773 25.3801 29.3021C26.1527 29.9656 26.8078 31.2254 26.8078 33.199C26.8078 36.0293 26.7826 39.5314 26.7826 40.2201C26.7826 40.766 27.1689 41.4295 28.2355 41.2363C36.634 38.448 42.3281 30.4779 42.3281 21.1641C42.3281 9.51543 32.8799 0.671875 21.2313 0.671875ZM8.83516 29.6381C8.72598 29.7221 8.75117 29.9152 8.89395 30.0748C9.02832 30.2092 9.22148 30.268 9.33066 30.1588C9.43984 30.0748 9.41465 29.8816 9.27188 29.7221C9.1375 29.5877 8.94434 29.5289 8.83516 29.6381ZM7.92812 28.9578C7.86934 29.067 7.95332 29.2014 8.12129 29.2854C8.25566 29.3693 8.42363 29.3441 8.48242 29.2266C8.54121 29.1174 8.45723 28.983 8.28926 28.899C8.12129 28.8486 7.98691 28.8738 7.92812 28.9578ZM10.6492 31.9477C10.5148 32.0568 10.5652 32.3088 10.7584 32.4684C10.9516 32.6615 11.1951 32.6867 11.3043 32.5523C11.4135 32.4432 11.3631 32.1912 11.1951 32.0316C11.0104 31.8385 10.7584 31.8133 10.6492 31.9477ZM9.6918 30.7131C9.55742 30.7971 9.55742 31.0154 9.6918 31.2086C9.82617 31.4018 10.0529 31.4857 10.1621 31.4018C10.2965 31.2926 10.2965 31.0742 10.1621 30.8811C10.0445 30.6879 9.82617 30.6039 9.6918 30.7131Z" fill="#CCD6F6"/>
</svg>
