<svg width="32" height="32" viewBox="0 0 32 32" fill="none" xmlns="http://www.w3.org/2000/svg">
<g clip-path="url(#clip0_4_41)">
<path d="M21.5312 10C20.625 4.41875 18.4875 0.5 16 0.5C13.5125 0.5 11.375 4.41875 10.4688 10H21.5312ZM10 16C10 17.3875 10.075 18.7188 10.2063 20H21.7875C21.9188 18.7188 21.9937 17.3875 21.9937 16C21.9937 14.6125 21.9188 13.2812 21.7875 12H10.2063C10.075 13.2812 10 14.6125 10 16ZM30.2938 10C28.5063 5.75625 24.8875 2.475 20.4188 1.15C21.9438 3.2625 22.9938 6.44375 23.5438 10H30.2938ZM11.575 1.15C7.1125 2.475 3.4875 5.75625 1.70625 10H8.45625C9 6.44375 10.05 3.2625 11.575 1.15ZM30.9625 12H23.7938C23.925 13.3125 24 14.6562 24 16C24 17.3438 23.925 18.6875 23.7938 20H30.9562C31.3 18.7188 31.4937 17.3875 31.4937 16C31.4937 14.6125 31.3 13.2812 30.9625 12ZM8 16C8 14.6562 8.075 13.3125 8.20625 12H1.0375C0.7 13.2812 0.5 14.6125 0.5 16C0.5 17.3875 0.7 18.7188 1.0375 20H8.2C8.075 18.6875 8 17.3438 8 16ZM10.4688 22C11.375 27.5812 13.5125 31.5 16 31.5C18.4875 31.5 20.625 27.5812 21.5312 22H10.4688ZM20.425 30.85C24.8875 29.525 28.5125 26.2437 30.3 22H23.55C23 25.5562 21.95 28.7375 20.425 30.85ZM1.70625 22C3.49375 26.2437 7.1125 29.525 11.5813 30.85C10.0563 28.7375 9.00625 25.5562 8.45625 22H1.70625Z" fill="#0A192F"/>
</g>
<defs>
<clipPath id="clip0_4_41">
<rect width="32" height="32" fill="white"/>
</clipPath>
</defs>
</svg>
