<svg width="43" height="43" viewBox="0 0 43 43" fill="none" xmlns="http://www.w3.org/2000/svg">
<path d="M21.5084 11.8418C16.1669 11.8418 11.8585 16.1502 11.8585 21.4916C11.8585 26.8331 16.1669 31.1415 21.5084 31.1415C26.8498 31.1415 31.1582 26.8331 31.1582 21.4916C31.1582 16.1502 26.8498 11.8418 21.5084 11.8418ZM21.5084 27.7653C18.0566 27.7653 15.2347 24.9518 15.2347 21.4916C15.2347 18.0315 18.0482 15.218 21.5084 15.218C24.9685 15.218 27.782 18.0315 27.782 21.4916C27.782 24.9518 24.9601 27.7653 21.5084 27.7653ZM33.8037 11.4471C33.8037 12.6985 32.7959 13.6979 31.5529 13.6979C30.3015 13.6979 29.3021 12.6901 29.3021 11.4471C29.3021 10.2042 30.3099 9.19634 31.5529 9.19634C32.7959 9.19634 33.8037 10.2042 33.8037 11.4471ZM40.1949 13.7315C40.0521 10.7165 39.3634 8.04575 37.1546 5.84536C34.9543 3.64497 32.2835 2.9563 29.2685 2.80513C26.1611 2.62876 16.8472 2.62876 13.7398 2.80513C10.7332 2.9479 8.06245 3.63657 5.85366 5.83696C3.64487 8.03735 2.9646 10.7081 2.81343 13.7231C2.63706 16.8305 2.63706 26.1444 2.81343 29.2518C2.9562 32.2668 3.64487 34.9375 5.85366 37.1379C8.06245 39.3383 10.7248 40.027 13.7398 40.1782C16.8472 40.3545 26.1611 40.3545 29.2685 40.1782C32.2835 40.0354 34.9543 39.3467 37.1546 37.1379C39.355 34.9375 40.0437 32.2668 40.1949 29.2518C40.3712 26.1444 40.3712 16.8389 40.1949 13.7315ZM36.1804 32.586C35.5253 34.2321 34.2572 35.5002 32.6027 36.1637C30.1251 37.1463 24.2462 36.9196 21.5084 36.9196C18.7705 36.9196 12.8832 37.1379 10.414 36.1637C8.76792 35.5086 7.49976 34.2405 6.83628 32.586C5.85366 30.1084 6.08042 24.2295 6.08042 21.4916C6.08042 18.7538 5.86206 12.8665 6.83628 10.3973C7.49136 8.75122 8.75952 7.48306 10.414 6.81958C12.8916 5.83696 18.7705 6.06372 21.5084 6.06372C24.2462 6.06372 30.1335 5.84536 32.6027 6.81958C34.2488 7.47466 35.5169 8.74282 36.1804 10.3973C37.163 12.8749 36.9363 18.7538 36.9363 21.4916C36.9363 24.2295 37.163 30.1168 36.1804 32.586Z" fill="#CCD6F6"/>
</svg>
